<svg width="40" height="76" viewBox="0 0 40 76" fill="none" xmlns="http://www.w3.org/2000/svg">
<g clip-path="url(#clip0_5_2)">
<path d="M19 0.5H21C21.8284 0.5 22.5 1.17157 22.5 2V46.5H17.5V2C17.5 1.17157 18.1716 0.5 19 0.5Z" fill="#E0E3EC" stroke="#B32837"/>
<path d="M18 46.5H22C22.8284 46.5 23.5 47.1716 23.5 48V75.5H16.5V48C16.5 47.1716 17.1716 46.5 18 46.5Z" fill="#222222" stroke="#222222"/>
<circle cx="20" cy="52" r="2" fill="#B32837"/>
<rect x="30" y="22" width="10" height="2" rx="1" fill="#B32837"/>
<rect x="30" y="32" width="10" height="2" rx="1" transform="rotate(30 30 32)" fill="#B32837"/>
<rect x="29" y="12" width="10" height="2" rx="1" transform="rotate(-30 29 12)" fill="#B32837"/>
<rect x="10" y="23.7321" width="10" height="2" rx="1" transform="rotate(180 10 23.7321)" fill="#B32837"/>
<rect x="10" y="13.7321" width="10" height="2" rx="1" transform="rotate(-150 10 13.7321)" fill="#B32837"/>
<rect x="11" y="33.7321" width="10" height="2" rx="1" transform="rotate(150 11 33.7321)" fill="#B32837"/>
</g>
<defs>
<clipPath id="clip0_5_2">
<rect width="40" height="76" fill="white"/>
</clipPath>
</defs>
</svg>

